<svg width="299" height="357" viewBox="0 0 299 357" fill="none" xmlns="http://www.w3.org/2000/svg">
<path fill-rule="evenodd" clip-rule="evenodd" d="M227.127 117.784C227.702 113.94 228 110.005 228 106C228 96.373 226.278 87.1483 223.125 78.6169C244.708 90.9283 262.907 108.471 276.014 129.683C290.563 153.231 298.261 180.369 298.241 208.05C298.241 290.269 231.512 356.997 149.293 356.997C67.074 356.997 0.345459 290.269 0.345459 208.05C0.345459 152.906 30.2382 104.804 74.7157 79.0511C71.6641 87.461 70 96.5361 70 106C70 110.149 70.3198 114.222 70.936 118.198C60.9253 126.964 52.4089 137.374 45.7786 149.028C35.5442 167.016 30.1539 187.353 30.135 208.05C30.135 273.884 83.4583 327.208 149.293 327.208C215.128 327.208 268.451 273.884 268.451 208.05C268.451 171.983 252.379 139.681 227.127 117.784ZM195.239 170.061C203.379 164.175 210.353 156.776 215.748 148.277C220.928 154.036 225.355 160.464 228.9 167.412C235.321 179.995 238.667 193.922 238.662 208.05C238.662 257.351 198.595 297.418 149.293 297.418C99.9915 297.418 59.9246 257.351 59.9246 208.05C59.9246 185.249 68.4757 164.455 82.5059 148.674C87.947 157.135 94.9589 164.489 103.129 170.326C94.7377 180.608 89.7141 193.803 89.7141 208.05C89.7141 240.967 116.376 267.629 149.293 267.629C182.211 267.629 208.872 240.967 208.872 208.05C208.872 193.68 203.762 180.38 195.239 170.061ZM132.731 183.323C137.981 184.422 143.423 185 149 185C154.735 185 160.327 184.389 165.714 183.228C173.756 188.577 179.083 197.722 179.083 208.05C179.083 224.434 165.677 237.839 149.293 237.839C132.909 237.839 119.504 224.434 119.504 208.05C119.504 197.782 124.768 188.685 132.731 183.323Z" fill="url(#paint0_linear_329_138)"/>
<path d="M149 172C130.479 172 114.184 165.538 100.114 152.613C86.0379 139.683 79 122.189 79 100.132C79 86.2556 84.25 71.2102 94.75 54.9962C105.25 38.7822 121.146 21.2535 142.438 2.41019C143.312 1.67983 144.333 1.09554 145.5 0.657325C146.667 0.219109 147.833 0 149 0C150.167 0 151.333 0.219109 152.5 0.657325C153.667 1.09554 154.688 1.67983 155.562 2.41019C176.854 21.2535 192.75 38.7822 203.25 54.9962C213.75 71.2102 219 86.2556 219 100.132C219 122.189 211.962 139.683 197.886 152.613C183.816 165.538 167.521 172 149 172ZM149 154.471C163.729 154.471 176.16 149.432 186.292 139.353C196.431 129.274 201.5 116.2 201.5 100.132C201.5 89.7614 197.198 77.8915 188.594 64.523C179.99 51.1603 166.792 36.2989 149 19.9389C131.208 36.2989 118.01 51.1603 109.406 64.523C100.802 77.8915 96.5 89.7614 96.5 100.132C96.5 116.2 101.566 129.274 111.699 139.353C121.837 149.432 134.271 154.471 149 154.471ZM151.406 145.707C153.156 145.561 154.653 144.869 155.895 143.63C157.132 142.385 157.75 140.887 157.75 139.134C157.75 137.089 157.094 135.447 155.781 134.208C154.469 132.964 152.792 132.414 150.75 132.561C144.771 132.999 138.427 131.357 131.719 127.635C125.01 123.907 120.781 117.15 119.031 107.363C118.74 105.756 117.973 104.442 116.73 103.419C115.493 102.397 114.073 101.885 112.469 101.885C110.427 101.885 108.75 102.651 107.438 104.182C106.125 105.718 105.688 107.509 106.125 109.554C108.604 122.847 114.438 132.341 123.625 138.038C132.813 143.735 142.073 146.291 151.406 145.707Z" fill="url(#paint1_linear_329_138)"/>
<defs>
<linearGradient id="paint0_linear_329_138" x1="149.293" y1="78.6169" x2="149.293" y2="356.997" gradientUnits="userSpaceOnUse">
<stop stop-color="#4C77EE"/>
<stop offset="1" stop-color="#28A6C2"/>
</linearGradient>
<linearGradient id="paint1_linear_329_138" x1="149" y1="0" x2="149" y2="172" gradientUnits="userSpaceOnUse">
<stop stop-color="#4C77EE"/>
<stop offset="1" stop-color="#28A6C2"/>
</linearGradient>
</defs>
</svg>
